<?xml version="1.0" encoding="utf-8"?>
<!-- Generator: Adobe Illustrator 25.3.1, SVG Export Plug-In . SVG Version: 6.00 Build 0)  -->
<svg version="1.1" id="Layer_1" xmlns="http://www.w3.org/2000/svg" xmlns:xlink="http://www.w3.org/1999/xlink" x="0px" y="0px"
	 viewBox="0 0 800 800" style="enable-background:new 0 0 800 800;" xml:space="preserve">
<style type="text/css">
	.st0{fill:#E31E34;}
	.st1{fill:none;stroke:#E31E34;stroke-width:24;stroke-linecap:round;stroke-miterlimit:50;}
</style>
<path class="st0" d="M578.8,367.5c-116.5,0-211.2,94.8-211.2,211.2S462.3,790,578.8,790S790,695.2,790,578.8
	S695.2,367.5,578.8,367.5z M578.8,757.5c-98.5,0-178.8-80.2-178.8-178.8S480.2,400,578.8,400s178.8,80.2,178.8,178.8
	S677.3,757.5,578.8,757.5z M400.7,367.5H140V335h308.7C431.5,344.2,415.5,355.1,400.7,367.5L400.7,367.5z M400.7,790H10V91.2
	C10,46.4,46.4,10,91.2,10h422.5c44.8,0,81.2,36.4,81.2,81.2V303c-5.4-0.3-10.8-0.5-16.2-0.5s-10.9,0.2-16.2,0.5V91.2
	c0-26.9-21.9-48.8-48.8-48.8H91.2c-26.9,0-48.8,21.9-48.8,48.8v666.2h325.7C378.1,769.2,389,780.1,400.7,790L400.7,790z M465,205
	H140v-32.5h325L465,205L465,205z M140,497.5h162.5V530H140V497.5z"/>
<path class="st1" d="M510,472.7h33c32.2,0,67.8,10.7,67.8,59.7c0,53.2-45.1,73.6-93,68.2c-1.5-0.1-2.9,1-3,2.5
	c-0.1,0.8,0.2,1.6,0.7,2.2l101.8,109.4"/>
<line class="st1" x1="649.6" y1="472.7" x2="535.7" y2="472.7"/>
<line class="st1" x1="511.6" y1="534" x2="650.4" y2="534"/>
</svg>
