<?xml version="1.0" encoding="utf-8"?>
<!-- Generator: Adobe Illustrator 25.3.1, SVG Export Plug-In . SVG Version: 6.00 Build 0)  -->
<svg version="1.1" id="Layer_1" xmlns="http://www.w3.org/2000/svg" xmlns:xlink="http://www.w3.org/1999/xlink" x="0px" y="0px"
	 viewBox="0 0 30 30"  xml:space="preserve" width="35px" height="35px">
<style type="text/css">
	.st0{fill:#bd2440;}
</style>
<g id="bold_copy_1_">
	<path class="st0" d="M23,6.79H6c-0.49,0-0.88,0.4-0.88,0.88v10.46c0,0.48,0.4,0.88,0.88,0.88h7.03v2.03h-2.68v1.17h8.28v-1.17
		h-2.68v-2.03H23c0.48,0,0.88-0.4,0.88-0.88V7.67C23.88,7.19,23.48,6.79,23,6.79z M22.71,17.83H6.29V7.97h16.42V17.83L22.71,17.83z"
		/>
</g>
<g id="layer1" transform="translate(0 -801.97)">
	<path id="path4158" class="st0" d="M15.34,817.87l-2.17-2.72l0.01-0.54c1.02,0.07,1.81-0.04,2-1L13,813.59l0.35-0.59l1.73,0.02
		c-0.26-0.55-0.99-0.62-2.12-0.58l0.39-0.58l3.68-0.01l-0.36,0.57h-1.02c0.19,0.2,0.32,0.42,0.33,0.61l1.06-0.01l-0.36,0.56
		l-0.7,0.01c-0.11,0.84-0.88,1.34-1.86,1.45l2.19,2.8L15.34,817.87L15.34,817.87L15.34,817.87z"/>
</g>
</svg>
