<?xml version="1.0" encoding="UTF-8"?>
<svg id="Layer_1" xmlns="http://www.w3.org/2000/svg" version="1.1" xmlns:xodm="http://www.corel.com/coreldraw/odm/2003" viewBox="0 0 566 150">
  <!-- Generator: Adobe Illustrator 29.3.0, SVG Export Plug-In . SVG Version: 2.1.0 Build 146)  -->
  <defs>
    <style>
      .st0 {
        fill: #fff;
      }

      .st1 {
        display: none;
        fill: #1a4771;
      }
    </style>
  </defs>
  <rect class="st1" width="566" height="150"/>
  <g>
    <g>
      <path class="st0" d="M42.2,61.7H15.3v-2.7c.6,0,1.5,0,2.7-.2,1.2,0,2-.2,2.5-.4.8-.3,1.4-.8,1.7-1.4s.5-1.3.5-2.1V20.5c0-.8-.1-1.5-.4-2.1s-.9-1.1-1.7-1.4c-.5-.2-1.4-.5-2.4-.7-1.1-.2-2-.4-2.8-.5v-2.7h26.9v2.7c-.7,0-1.5.2-2.6.3-1,.1-1.9.3-2.6.5-.9.3-1.5.8-1.8,1.4s-.4,1.3-.4,2.1v34.4c0,.8.2,1.5.5,2.1s.9,1.1,1.8,1.4c.5.2,1.3.4,2.4.6,1.1.2,2,.3,2.8.4v2.7h-.2Z"/>
      <path class="st0" d="M72.2,63c-3.6,0-6.9-.6-10-1.7-3.1-1.2-5.8-2.8-8.1-5-2.3-2.1-4-4.8-5.3-8s-1.9-6.6-1.9-10.4.7-7.2,2-10.5c1.3-3.2,3.1-6,5.5-8.3,2.3-2.3,5.1-4.1,8.4-5.4,3.3-1.3,6.7-1.9,10.5-1.9s5.1.3,7.3,1c2.2.7,4.1,1.4,5.6,2.2l2.1-1.9h3l.3,17.7h-3c-1.7-5.4-3.8-9.4-6.1-11.9-2.4-2.5-5.3-3.8-8.7-3.8s-7.5,1.9-9.8,5.7c-2.2,3.8-3.3,9.1-3.3,15.9s.4,7.1,1.1,9.9,1.8,4.9,3,6.6c1.3,1.7,2.9,3,4.7,3.8,1.8.8,3.8,1.2,6,1.2,3.2,0,6-.9,8.5-2.6,2.5-1.7,4.8-4.4,6.8-7.9l2.9,1.8c-1,2-2.1,3.8-3.3,5.4-1.3,1.6-2.7,2.9-4.3,4.1-1.8,1.3-3.8,2.2-6,2.9s-4.7,1.1-7.7,1.1h-.2Z"/>
      <path class="st0" d="M163.5,61.7h-26.3v-2.7c.8,0,1.7-.2,2.9-.3,1.1-.2,1.9-.3,2.3-.5.8-.3,1.4-.8,1.8-1.4.4-.6.5-1.3.5-2.3V18.3l-16.7,42.6h-4.3c-.2-.8-.7-2.2-1.5-4.5-.8-2.2-1.5-4-2-5.4l-12.3-33.3v29.5c0,2.8.2,5,.6,6.4s1,2.5,1.8,3.2c.6.5,1.6.9,3.1,1.4,1.5.4,2.5.7,3.1.8v2.7h-20.8v-2.7c.6,0,1.5-.2,2.8-.5,1.3-.2,2.3-.7,3.2-1.2.9-.6,1.5-1.7,1.8-3.2s.5-3.7.5-6.5v-24c0-1.5-.2-2.7-.5-3.6-.4-1-.9-1.7-1.6-2.3-.9-.7-1.8-1.2-2.8-1.4s-1.9-.3-2.9-.4v-2.7h22.3l12,32,10.1-25.9c.3-1,.7-2.1,1-3.4.3-1.3.5-2.2.5-2.6h21.5v2.7c-.7,0-1.5.1-2.3.3-.8.1-1.6.3-2.3.5-.9.3-1.5.8-1.8,1.4s-.4,1.3-.4,2.1v34.4c0,.8.1,1.5.4,2.1.3.6.9,1,1.8,1.5.5.2,1.2.4,2.2.6,1,.2,1.8.3,2.4.4v2.7-.3Z"/>
      <path class="st0" d="M224.1,61.7h-18.6c-3.2-4.9-5.9-8.8-8-11.8-2.1-2.9-4.8-6.3-7.9-10.1h-1.9v14.7c0,.8.2,1.5.5,2.1s.9,1,1.8,1.4c.4.2,1.1.4,2,.6.9.2,1.7.3,2.4.4v2.7h-25.9v-2.7c.7,0,1.5-.2,2.6-.3s1.9-.3,2.3-.5c.9-.4,1.4-.8,1.7-1.4.3-.6.4-1.3.4-2.1V20.5c0-.8-.1-1.5-.4-2.1-.3-.5-.9-1-1.8-1.4-.7-.3-1.6-.5-2.6-.8-1-.2-1.8-.4-2.3-.4v-2.7h27.2c6.1,0,10.7,1,13.9,2.9,3.2,1.9,4.7,4.8,4.7,8.6s-1,6.1-2.9,8.2c-1.9,2.1-4.9,3.7-8.9,4.8,1.5,2,3.4,4.3,5.4,7,2.1,2.6,4.2,5.3,6.4,8.1.7.9,1.7,2,2.9,3.3s2.3,2.1,3.2,2.4c.5.2,1.2.3,2,.4.8,0,1.4.2,1.7.2v2.7h.1ZM200.9,25.6c0-3.2-.9-5.6-2.7-7.1s-4.4-2.2-7.7-2.2h-2.7v20.3h2.6c3.3,0,5.9-.9,7.8-2.6,1.8-1.8,2.8-4.5,2.8-8.3h-.1Z"/>
    </g>
    <g>
      <path class="st0" d="M15.2,72h4.1v21.5h-4.1s0-21.5,0-21.5Z"/>
      <path class="st0" d="M23.9,93.5v-21.5h3.4c2,0,3.4,0,4.3.4,1.3.3,2.3,1,3.1,1.9s1.1,2,1.1,3.3-.2,1.6-.5,2.2c-.3.7-.9,1.3-1.7,1.9,1.3.6,2.3,1.4,2.9,2.3.6.9.9,2,.9,3.3s-.3,2.3-.9,3.3-1.4,1.7-2.4,2.2-2.4.7-4.1.7h-6.1ZM28,75.9v4.5h.9c1,0,1.7-.2,2.2-.6s.7-1,.7-1.7-.2-1.2-.7-1.6-1.2-.6-2.1-.6h-1.1.1ZM28,84.1v5.5h1c1.7,0,2.9-.2,3.4-.6.6-.4.9-1.1.9-1.9s-.3-1.7-1-2.2-1.9-.8-3.5-.8h-.9,0Z"/>
      <path class="st0" d="M52.6,74.9l-3,2.7c-1.1-1.5-2.2-2.2-3.3-2.2s-1,0-1.3.4-.5.6-.5,1,0,.7.4,1c.3.4,1.3,1.4,3,2.8,1.6,1.3,2.5,2.1,2.8,2.5.8.8,1.4,1.6,1.8,2.4.3.8.5,1.6.5,2.5,0,1.8-.6,3.2-1.8,4.4s-2.8,1.7-4.8,1.7-2.9-.4-4-1.1-2.1-1.9-2.9-3.5l3.4-2.1c1,1.9,2.2,2.9,3.6,2.9s1.3-.2,1.8-.6.7-.9.7-1.4-.2-1-.5-1.5-1.2-1.2-2.4-2.2c-2.3-1.9-3.9-3.4-4.5-4.4-.7-1-1-2.1-1-3.1,0-1.5.6-2.8,1.7-3.8,1.1-1.1,2.5-1.6,4.2-1.6s2.1.2,3.1.7,2,1.4,3.2,2.7l-.2-.2Z"/>
      <path class="st0" d="M85.1,75.7l-2.9,2.7c-2-2.1-4.1-3.1-6.6-3.1s-3.8.7-5.2,2.1c-1.4,1.4-2.1,3.1-2.1,5.2s.3,2.7.9,3.8,1.5,2,2.6,2.6,2.4,1,3.8,1,2.3-.2,3.3-.7c1-.4,2.1-1.3,3.2-2.4l2.8,2.9c-1.6,1.6-3.1,2.6-4.5,3.2s-3,.9-4.8.9c-3.3,0-6.1-1.1-8.2-3.2s-3.2-4.8-3.2-8.2.5-4.1,1.5-5.7c1-1.7,2.4-3,4.2-4s3.8-1.5,5.9-1.5,3.5.4,5.1,1.1c1.6.8,3.1,1.8,4.3,3.2h-.1Z"/>
      <path class="st0" d="M104.2,86.7h-12.8c.2,1.1.7,2,1.5,2.7s1.8,1,3.1,1,2.8-.5,3.9-1.6l3.4,1.6c-.8,1.2-1.8,2.1-3,2.6s-2.6.9-4.2.9c-2.5,0-4.5-.8-6.1-2.4s-2.4-3.6-2.4-5.9.8-4.5,2.4-6.1,3.5-2.4,5.9-2.4,4.6.8,6.1,2.4,2.4,3.7,2.4,6.4v.8h-.2ZM100.2,83.5c-.3-.9-.8-1.6-1.6-2.2-.8-.6-1.7-.8-2.7-.8s-2.1.3-2.9.9c-.5.4-1,1.1-1.5,2.1h8.7Z"/>
      <path class="st0" d="M107.5,77.6h4v1.6c.9-.8,1.7-1.3,2.5-1.6.7-.3,1.5-.4,2.3-.4,1.6,0,2.9.6,4,1.7s1.4,2.3,1.4,4.2v10.5h-4v-7c0-1.9,0-3.2-.3-3.8s-.5-1.1-.9-1.4-.9-.5-1.6-.5-1.5.3-2.1.8-1,1.3-1.2,2.2c0,.5-.2,1.6-.2,3.2v6.4h-4v-15.9h0Z"/>
      <path class="st0" d="M125.9,71.7h4v5.9h2.4v3.4h-2.4v12.5h-4v-12.5h-2.1v-3.4h2.1s0-5.9,0-5.9Z"/>
      <path class="st0" d="M150.4,86.7h-12.8c.2,1.1.7,2,1.5,2.7s1.8,1,3.1,1,2.8-.5,3.9-1.6l3.4,1.6c-.8,1.2-1.8,2.1-3,2.6s-2.6.9-4.2.9c-2.5,0-4.5-.8-6.1-2.4s-2.4-3.6-2.4-5.9.8-4.5,2.4-6.1c1.6-1.6,3.5-2.4,5.9-2.4s4.6.8,6.1,2.4,2.4,3.7,2.4,6.4v.8h-.2ZM146.4,83.5c-.3-.9-.8-1.6-1.6-2.2s-1.7-.8-2.7-.8-2.1.3-2.9.9c-.5.4-1,1.1-1.5,2.1h8.7Z"/>
      <path class="st0" d="M152.7,77.6h3.4v2c.4-.8.9-1.4,1.5-1.8s1.3-.6,2-.6,1.1,0,1.6.4l-1.2,3.4c-.5-.2-.9-.4-1.2-.4-.6,0-1.1.4-1.6,1.1-.4.8-.6,2.3-.6,4.5v7.2h-4v-15.9h.1Z"/>
      <path class="st0" d="M169.7,77.6h1.4c0-2.1,0-3.3.1-3.7.1-.9.5-1.6,1.1-2.1s1.5-.8,2.7-.8,1.8.2,2.8.6v3c-.6-.2-1-.2-1.4-.2s-.8,0-1,.3c-.2,0-.2.4-.2.9v2h2.5v3.4h-2.5v12.6h-4v-12.6h-1.4v-3.4h-.1Z"/>
      <path class="st0" d="M187.5,77.2c1.5,0,2.9.4,4.2,1.1,1.3.8,2.4,1.8,3.1,3.1s1.1,2.7,1.1,4.2-.4,2.9-1.1,4.2c-.7,1.3-1.8,2.3-3.1,3.1s-2.7,1.1-4.3,1.1c-2.3,0-4.2-.8-5.9-2.4-1.6-1.6-2.4-3.6-2.4-5.9s.9-4.6,2.7-6.2c1.6-1.4,3.4-2.2,5.5-2.2h.2ZM187.6,80.9c-1.2,0-2.3.4-3.1,1.3s-1.2,2-1.2,3.3.4,2.5,1.2,3.4,1.9,1.3,3.1,1.3,2.3-.4,3.1-1.3,1.2-2,1.2-3.4-.4-2.5-1.2-3.3c-.8-.9-1.9-1.3-3.1-1.3Z"/>
      <path class="st0" d="M198.3,77.6h3.4v2c.4-.8.9-1.4,1.5-1.8s1.3-.6,2-.6,1.1,0,1.6.4l-1.2,3.4c-.5-.2-.9-.4-1.2-.4-.6,0-1.1.4-1.6,1.1-.4.8-.6,2.3-.6,4.5v7.2h-4v-15.9h.1Z"/>
      <path class="st0" d="M219.8,72h4l5,15,5-15h4l3.6,21.5h-4l-2.3-13.6-4.6,13.6h-3.6l-4.5-13.6-2.4,13.6h-4l3.7-21.5h.1Z"/>
      <path class="st0" d="M256,77.6h4v15.9h-4v-1.7c-.8.7-1.6,1.3-2.3,1.6s-1.6.5-2.6.5c-2.1,0-3.8-.8-5.3-2.4s-2.3-3.6-2.3-6,.7-4.5,2.2-6c1.5-1.6,3.2-2.4,5.3-2.4s1.9.2,2.7.5,1.6.9,2.3,1.6v-1.8.2ZM251.8,80.8c-1.2,0-2.3.4-3.1,1.3s-1.2,2-1.2,3.4.4,2.5,1.2,3.4,1.9,1.3,3.1,1.3,2.3-.4,3.1-1.3,1.2-2,1.2-3.4-.4-2.5-1.2-3.4-1.9-1.3-3.1-1.3Z"/>
      <path class="st0" d="M264,77.6h4v1.6c.9-.8,1.7-1.3,2.5-1.6.7-.3,1.5-.4,2.3-.4,1.6,0,2.9.6,4,1.7.9.9,1.4,2.3,1.4,4.2v10.5h-4v-7c0-1.9,0-3.2-.3-3.8s-.5-1.1-.9-1.4-.9-.5-1.6-.5-1.5.3-2.1.8-1,1.3-1.2,2.2c-.1.5-.2,1.6-.2,3.2v6.4h-4v-15.9h.1Z"/>
      <path class="st0" d="M293.8,77.6h4v15.9h-4v-1.7c-.8.7-1.6,1.3-2.3,1.6s-1.6.5-2.6.5c-2.1,0-3.8-.8-5.3-2.4s-2.3-3.6-2.3-6,.7-4.5,2.2-6c1.5-1.6,3.2-2.4,5.3-2.4s1.9.2,2.7.5,1.6.9,2.3,1.6v-1.8.2ZM289.6,80.8c-1.2,0-2.3.4-3.1,1.3s-1.2,2-1.2,3.4.4,2.5,1.2,3.4,1.9,1.3,3.1,1.3,2.3-.4,3.1-1.3,1.2-2,1.2-3.4-.4-2.5-1.2-3.4-1.9-1.3-3.1-1.3Z"/>
      <path class="st0" d="M313.6,77.6h4v13.7c0,2.7-.5,4.7-1.6,5.9-1.5,1.7-3.6,2.6-6.6,2.6s-2.9-.2-3.9-.6-2-1-2.7-1.7-1.3-1.7-1.6-2.8h4.4c.4.4.9.8,1.5,1s1.3.3,2.2.3,1.9-.2,2.6-.5,1.1-.8,1.4-1.3.4-1.4.4-2.7c-.7.7-1.4,1.2-2.2,1.5s-1.6.5-2.6.5c-2.1,0-3.9-.8-5.4-2.3s-2.2-3.5-2.2-5.9.8-4.6,2.3-6.1c1.4-1.4,3.1-2.1,5.1-2.1s1.8.2,2.6.5c.8.3,1.6.9,2.5,1.7v-1.8h-.2ZM309.5,80.9c-1.3,0-2.3.4-3.1,1.3s-1.2,1.9-1.2,3.2.4,2.4,1.3,3.3,1.9,1.3,3.2,1.3,2.3-.4,3.1-1.2c.8-.8,1.2-1.9,1.2-3.3s-.4-2.4-1.2-3.2-1.9-1.2-3.1-1.2l-.2-.2Z"/>
      <path class="st0" d="M337.6,86.7h-12.8c.2,1.1.7,2,1.5,2.7s1.8,1,3.1,1,2.8-.5,3.9-1.6l3.4,1.6c-.8,1.2-1.8,2.1-3,2.6s-2.6.9-4.2.9c-2.5,0-4.5-.8-6.1-2.4s-2.4-3.6-2.4-5.9.8-4.5,2.4-6.1,3.5-2.4,5.9-2.4,4.6.8,6.1,2.4,2.4,3.7,2.4,6.4v.8h-.2ZM333.6,83.5c-.3-.9-.8-1.6-1.6-2.2-.8-.6-1.7-.8-2.7-.8s-2.1.3-2.9.9c-.5.4-1,1.1-1.5,2.1h8.7Z"/>
      <path class="st0" d="M340.8,77.6h4v1.8c.7-.8,1.4-1.3,2.3-1.7s1.7-.6,2.7-.6,1.9.2,2.7.7c.8.5,1.4,1.2,1.9,2.1.6-.9,1.4-1.7,2.3-2.1s1.9-.7,3-.7,2.1.3,3,.8,1.5,1.2,1.9,2.1.6,2.2.6,4.1v9.3h-4v-8.1c0-1.8-.2-3-.7-3.7s-1.1-1-2-1-1.3.2-1.8.6-.9.9-1.2,1.6-.4,1.8-.4,3.3v7.2h-4v-7.7c0-1.4-.1-2.5-.3-3.1-.2-.6-.5-1.1-.9-1.4s-.9-.5-1.5-.5-1.3.2-1.8.6-.9.9-1.2,1.7c-.3.7-.4,1.8-.4,3.4v7.1h-4v-15.9h-.2Z"/>
      <path class="st0" d="M385,86.7h-12.8c.2,1.1.7,2,1.5,2.7s1.8,1,3.1,1,2.8-.5,3.9-1.6l3.4,1.6c-.8,1.2-1.8,2.1-3,2.6s-2.6.9-4.2.9c-2.5,0-4.5-.8-6.1-2.4s-2.4-3.6-2.4-5.9.8-4.5,2.4-6.1,3.5-2.4,5.9-2.4,4.6.8,6.1,2.4,2.4,3.7,2.4,6.4v.8h-.2ZM381,83.5c-.3-.9-.8-1.6-1.6-2.2-.8-.6-1.7-.8-2.7-.8s-2.1.3-2.9.9c-.5.4-1,1.1-1.5,2.1h8.7Z"/>
      <path class="st0" d="M388.3,77.6h4v1.6c.9-.8,1.7-1.3,2.5-1.6.7-.3,1.5-.4,2.3-.4,1.6,0,2.9.6,4,1.7.9.9,1.4,2.3,1.4,4.2v10.5h-4v-7c0-1.9,0-3.2-.3-3.8s-.5-1.1-.9-1.4-.9-.5-1.6-.5-1.5.3-2.1.8-1,1.3-1.2,2.2c-.1.5-.2,1.6-.2,3.2v6.4h-4v-15.9h.1Z"/>
      <path class="st0" d="M406.7,71.7h4v5.9h2.4v3.4h-2.4v12.5h-4v-12.5h-2.1v-3.4h2.1v-5.9Z"/>
      <path class="st0" d="M424.4,72h4.3c2.4,0,4.1.2,5.1.6s1.8,1.1,2.4,2.1.9,2.2.9,3.5-.3,2.6-1,3.6-1.7,1.7-3.1,2.2l5.1,9.6h-4.5l-4.8-9.1h-.4v9.1h-4.1v-21.5h.1ZM428.5,80.4h1.3c1.3,0,2.2-.2,2.7-.5s.7-.9.7-1.7-.1-.9-.4-1.2c-.2-.3-.6-.6-1-.7-.4-.2-1.2-.2-2.2-.2h-1.1v4.4h0Z"/>
      <path class="st0" d="M457,86.7h-12.8c.2,1.1.7,2,1.5,2.7s1.8,1,3.1,1,2.8-.5,3.9-1.6l3.4,1.6c-.8,1.2-1.8,2.1-3,2.6s-2.6.9-4.2.9c-2.5,0-4.5-.8-6.1-2.4s-2.4-3.6-2.4-5.9.8-4.5,2.4-6.1,3.5-2.4,5.9-2.4,4.6.8,6.1,2.4,2.4,3.7,2.4,6.4v.8h-.2ZM453,83.5c-.3-.9-.8-1.6-1.6-2.2-.8-.6-1.7-.8-2.7-.8s-2.1.3-2.9.9c-.5.4-1,1.1-1.5,2.1h8.7Z"/>
      <path class="st0" d="M470,79.8l-2.5,2.5c-1-1-1.9-1.5-2.7-1.5s-.8,0-1.1.3-.4.4-.4.7,0,.4.2.6.6.4,1.2.7l1.5.7c1.5.8,2.6,1.5,3.2,2.3s.9,1.7.9,2.8-.5,2.6-1.6,3.5c-1,.9-2.4,1.4-4.2,1.4s-4.2-.9-5.6-2.7l2.5-2.7c.5.5,1,1,1.6,1.3s1.2.5,1.7.5,1,0,1.3-.4.5-.5.5-.9c0-.6-.6-1.2-1.7-1.8l-1.3-.7c-2.6-1.3-3.9-2.9-3.9-4.9s.5-2.3,1.5-3.2,2.2-1.3,3.7-1.3,2,.2,2.9.7,1.7,1.1,2.3,2h0Z"/>
      <path class="st0" d="M489.4,86.7h-12.8c.2,1.1.7,2,1.5,2.7s1.8,1,3.1,1,2.8-.5,3.9-1.6l3.4,1.6c-.8,1.2-1.8,2.1-3,2.6s-2.6.9-4.2.9c-2.5,0-4.5-.8-6.1-2.4s-2.4-3.6-2.4-5.9.8-4.5,2.4-6.1,3.5-2.4,5.9-2.4,4.6.8,6.1,2.4,2.4,3.7,2.4,6.4v.8h-.2ZM485.4,83.5c-.3-.9-.8-1.6-1.6-2.2-.8-.6-1.7-.8-2.7-.8s-2.1.3-2.9.9c-.5.4-1,1.1-1.5,2.1h8.7Z"/>
      <path class="st0" d="M504.4,77.6h4v15.9h-4v-1.7c-.8.7-1.6,1.3-2.3,1.6s-1.6.5-2.6.5c-2.1,0-3.8-.8-5.3-2.4s-2.3-3.6-2.3-6,.7-4.5,2.2-6c1.5-1.6,3.2-2.4,5.3-2.4s1.9.2,2.7.5,1.6.9,2.3,1.6v-1.8.2ZM500.2,80.8c-1.2,0-2.3.4-3.1,1.3s-1.2,2-1.2,3.4.4,2.5,1.2,3.4,1.9,1.3,3.1,1.3,2.3-.4,3.1-1.3,1.2-2,1.2-3.4-.4-2.5-1.2-3.4-1.9-1.3-3.1-1.3Z"/>
      <path class="st0" d="M511.5,77.6h3.4v2c.4-.8.9-1.4,1.5-1.8s1.3-.6,2-.6,1.1,0,1.6.4l-1.2,3.4c-.5-.2-.9-.4-1.2-.4-.6,0-1.1.4-1.6,1.1-.4.8-.6,2.3-.6,4.5v7.2h-4v-15.9h0Z"/>
      <path class="st0" d="M537.7,80.8l-3.3,1.8c-.6-.7-1.2-1.1-1.9-1.4s-1.3-.4-2.1-.4c-1.5,0-2.7.4-3.6,1.3s-1.4,2-1.4,3.4.4,2.5,1.3,3.3c.9.9,2.1,1.3,3.5,1.3s3.2-.6,4.2-1.8l3.2,2.2c-1.7,2.2-4.1,3.3-7.2,3.3s-5-.8-6.6-2.5-2.4-3.6-2.4-5.8.4-3,1.2-4.3,1.8-2.3,3.2-3.1c1.4-.7,2.9-1.1,4.6-1.1s3,.3,4.3.9,2.3,1.5,3.1,2.7v.2Z"/>
      <path class="st0" d="M541.3,71.4h4v7.8c.8-.7,1.6-1.2,2.4-1.5s1.6-.5,2.4-.5c1.6,0,2.9.5,4,1.6.9.9,1.4,2.3,1.4,4.2v10.5h-3.9v-7c0-1.8,0-3.1-.3-3.8s-.5-1.1-.9-1.5c-.4-.3-1-.5-1.6-.5s-1.5.3-2.1.8-1,1.3-1.2,2.2c0,.5-.2,1.6-.2,3.3v6.4h-4v-22.1h0Z"/>
    </g>
    <g>
      <path class="st0" d="M13.4,111h4.7l3.8,10.9,4.1-10.9h2.9l4.1,10.8,3.9-10.8h4.7l-7,19.1h-3l-4.1-10.9-4.2,10.9h-3s-6.9-19.1-6.9-19.1Z"/>
      <path class="st0" d="M42.2,111h4.7l3.8,10.9,4.1-10.9h2.9l4.1,10.8,3.9-10.8h4.7l-7,19.1h-3l-4.1-10.9-4.2,10.9h-3s-6.9-19.1-6.9-19.1Z"/>
      <path class="st0" d="M70.9,111h4.7l3.8,10.9,4.1-10.9h2.9l4.1,10.8,3.9-10.8h4.7l-7,19.1h-3l-4.1-10.9-4.2,10.9h-3s-6.9-19.1-6.9-19.1Z"/>
      <path class="st0" d="M104.5,125.1c.8,0,1.4.3,2,.8s.8,1.2.8,1.9-.3,1.4-.8,2-1.2.8-2,.8-1.4-.3-2-.8-.8-1.2-.8-2,.3-1.4.8-1.9,1.2-.8,2-.8Z"/>
      <path class="st0" d="M113.8,103.1c.8,0,1.6.3,2.2.9s.9,1.3.9,2.2-.3,1.6-.9,2.2-1.3.9-2.1.9-1.6-.3-2.2-.9-.9-1.4-.9-2.2.3-1.6.9-2.2,1.3-.9,2.2-.9h0ZM111.4,111h4.8v19.1h-4.8v-19.1Z"/>
      <path class="st0" d="M139.3,114.9l-4,2.2c-.8-.8-1.5-1.3-2.2-1.6s-1.6-.5-2.6-.5c-1.8,0-3.2.5-4.4,1.6-1.1,1.1-1.7,2.4-1.7,4.1s.5,3,1.6,4,2.5,1.5,4.2,1.5,3.8-.7,5-2.2l3.8,2.6c-2.1,2.7-4.9,4-8.7,4s-6-1-7.9-3-2.9-4.3-2.9-7,.5-3.6,1.4-5.1,2.2-2.8,3.9-3.7,3.5-1.3,5.6-1.3,3.6.4,5.1,1.1,2.7,1.8,3.7,3.2h0Z"/>
      <path class="st0" d="M143.6,111h4.8v2.2c.8-.9,1.7-1.6,2.7-2s2.1-.7,3.3-.7,2.3.3,3.2.9c1,.6,1.7,1.4,2.3,2.6.8-1.1,1.7-2,2.8-2.6s2.3-.9,3.6-.9,2.6.3,3.6.9,1.8,1.5,2.2,2.5c.5,1,.7,2.7.7,5v11.2h-4.8v-9.7c0-2.2-.3-3.6-.8-4.4s-1.3-1.2-2.4-1.2-1.6.2-2.2.7-1.1,1.1-1.5,1.9-.5,2.2-.5,4v8.6h-4.8v-9.3c0-1.7-.1-3-.4-3.7s-.6-1.3-1.1-1.7c-.5-.4-1.1-.6-1.8-.6s-1.5.2-2.2.7-1.1,1.1-1.5,2-.5,2.2-.5,4v8.5h-4.8v-19.1.2Z"/>
      <path class="st0" d="M176.3,111h4.1v2.4c.4-.9,1-1.7,1.8-2.2s1.5-.7,2.4-.7,1.3.2,2,.5l-1.5,4.1c-.6-.3-1-.4-1.4-.4-.7,0-1.4.5-1.9,1.4s-.8,2.7-.8,5.4v8.6h-4.8v-19.1h0Z"/>
      <path class="st0" d="M190.8,103.1c.8,0,1.6.3,2.2.9.6.6.9,1.3.9,2.2s-.3,1.6-.9,2.2c-.6.6-1.3.9-2.1.9s-1.6-.3-2.2-.9-.9-1.4-.9-2.2.3-1.6.9-2.2c.6-.6,1.3-.9,2.2-.9h0ZM188.4,111h4.8v19.1h-4.8v-19.1Z"/>
      <path class="st0" d="M197.6,111h4.8v2c1.1-.9,2.1-1.6,3-1.9.9-.4,1.8-.5,2.7-.5,1.9,0,3.5.7,4.8,2,1.1,1.1,1.7,2.8,1.7,5v12.6h-4.7v-8.4c0-2.3-.1-3.8-.3-4.5-.2-.8-.6-1.3-1.1-1.7-.5-.4-1.1-.6-1.9-.6s-1.8.3-2.5,1-1.2,1.5-1.4,2.7c-.1.6-.2,1.9-.2,3.9v7.7h-4.8v-19.3Z"/>
      <path class="st0" d="M233.3,103.6h4.8v26.5h-4.8v-2c-.9.9-1.9,1.5-2.8,1.9s-2,.6-3.1.6c-2.5,0-4.6-1-6.4-2.9-1.8-1.9-2.7-4.3-2.7-7.1s.9-5.4,2.6-7.3,3.9-2.8,6.4-2.8,2.2.2,3.2.7,1.9,1.1,2.8,2v-9.5h0ZM228.3,115c-1.5,0-2.7.5-3.7,1.6s-1.5,2.4-1.5,4,.5,3,1.5,4.1,2.2,1.6,3.7,1.6,2.8-.5,3.7-1.6c1-1,1.5-2.4,1.5-4.1s-.5-3-1.5-4-2.2-1.5-3.8-1.5h.1Z"/>
      <path class="st0" d="M244.8,103.1c.8,0,1.6.3,2.2.9.6.6.9,1.3.9,2.2s-.3,1.6-.9,2.2c-.6.6-1.3.9-2.1.9s-1.6-.3-2.2-.9-.9-1.4-.9-2.2.3-1.6.9-2.2c.6-.6,1.3-.9,2.2-.9h0ZM242.4,111h4.8v19.1h-4.8v-19.1Z"/>
      <path class="st0" d="M265.7,111h4.8v19.1h-4.8v-2c-.9.9-1.9,1.5-2.8,1.9s-2,.6-3.1.6c-2.5,0-4.6-1-6.4-2.9-1.8-1.9-2.7-4.3-2.7-7.1s.9-5.4,2.6-7.3,3.9-2.8,6.4-2.8,2.2.2,3.2.7,1.9,1.1,2.8,2v-2.1h0ZM260.7,115c-1.5,0-2.7.5-3.7,1.6s-1.5,2.4-1.5,4,.5,3,1.5,4.1,2.2,1.6,3.7,1.6,2.8-.5,3.7-1.6c1-1,1.5-2.4,1.5-4.1s-.5-3-1.5-4-2.2-1.5-3.8-1.5h0Z"/>
      <path class="st0" d="M278,125.1c.8,0,1.4.3,2,.8s.8,1.2.8,1.9-.3,1.4-.8,2-1.2.8-2,.8-1.4-.3-2-.8-.8-1.2-.8-2,.3-1.4.8-1.9,1.2-.8,2-.8Z"/>
      <path class="st0" d="M294.4,110.5c1.8,0,3.5.5,5.1,1.4s2.8,2.1,3.7,3.7,1.3,3.2,1.3,5-.4,3.5-1.3,5.1-2.1,2.8-3.7,3.7-3.3,1.3-5.1,1.3c-2.7,0-5.1-1-7-2.9s-2.9-4.3-2.9-7.1,1.1-5.5,3.3-7.5c1.9-1.7,4.1-2.6,6.6-2.6h0ZM294.5,115c-1.5,0-2.7.5-3.7,1.6-1,1-1.5,2.4-1.5,4s.5,3,1.5,4,2.2,1.5,3.7,1.5,2.8-.5,3.8-1.6c1-1,1.5-2.4,1.5-4s-.5-3-1.5-4-2.2-1.5-3.8-1.5Z"/>
      <path class="st0" d="M307.3,111h4.1v2.4c.4-.9,1-1.7,1.8-2.2s1.5-.7,2.4-.7,1.3.2,2,.5l-1.5,4.1c-.6-.3-1-.4-1.4-.4-.7,0-1.4.5-1.9,1.4s-.8,2.7-.8,5.4v8.6h-4.8v-19.1h0Z"/>
      <path class="st0" d="M334.1,111h4.8v16.4c0,3.2-.7,5.6-2,7.1-1.7,2.1-4.4,3.1-7.9,3.1s-3.5-.2-4.7-.7-2.4-1.2-3.2-2.1-1.5-2-2-3.3h5.3c.5.5,1.1.9,1.8,1.2s1.6.4,2.6.4,2.3-.2,3.1-.6,1.3-.9,1.7-1.5.5-1.7.5-3.3c-.8.8-1.7,1.5-2.7,1.8s-2,.6-3.1.6c-2.6,0-4.7-.9-6.5-2.8s-2.7-4.2-2.7-7,.9-5.5,2.8-7.3c1.7-1.7,3.7-2.5,6.1-2.5s2.1.2,3.1.6,2,1.1,2.9,2v-2.1h.1ZM329.1,115c-1.5,0-2.8.5-3.7,1.5s-1.5,2.3-1.5,3.8.5,2.9,1.5,3.9,2.3,1.5,3.8,1.5,2.7-.5,3.7-1.5,1.5-2.3,1.5-3.9-.5-2.9-1.5-3.9-2.2-1.5-3.8-1.5h0Z"/>
    </g>
    <rect class="st0" x="13.1" y="99" width="285.2" height="2"/>
  </g>
</svg>